<svg width="0" height="0" class="hidden">
  <symbol version="1.1" xmlns="http://www.w3.org/2000/svg" viewBox="0 0 242 90" id="rss">
    <path d="M137.197 3.257c-6.927 1.609-10.367 5.259-10.401 11.036-0.039 6.727 3.729 9.816 15.812 12.966 5.873 1.53 7.869 4.182 5.091 6.758-3.153 2.922-9.323 1.027-10.1-3.105-0.385-2.062-0.366-2.056-6.837-1.696l-5.735 0.318 0.276 1.806c0.425 2.784 2.722 7.082 4.68 8.758 5.802 4.964 21.78 4.455 27.25-0.872l1.6-1.558 0.307 1.811c1.125 6.663 7.892 12.923 15.677 14.504l2.5 0.509-1.477 1.935c-4.874 6.384-5.012 19.44-0.276 26.221 7.248 10.375 27.644 10.074 34.355-0.506l1.249-1.969v9.391h31.61v-10.097h-18.878v-29.416h-12.732l-0.025 4.5c-0.022 3.676-0.121 4.343-0.548 3.642-2.419-3.968-7.13-7.265-11.748-8.218l-2.489-0.515 2.526-1.898c7.858-5.906 12.752-16.681 11.495-25.307-3.305-22.669-35.958-23.020-48.395-0.523-0.802 1.448-1.485 2.68-1.519 2.737s-1.153-0.956-2.489-2.247c-2.77-2.683-4.995-3.665-12.558-5.538-7.037-1.744-8.477-2.967-6.112-5.192 2.25-2.115 7.149-0.745 8.252 2.309 0.647 1.789 0.529 1.772 8.010 1.277l4.326-0.287-0.276-1.724c-1.277-7.987-11.329-12.386-22.424-9.807zM2.635 23.268v19.755h12.732v-15.806h1.294c2.042 0 3.277 1.502 7.214 8.781l3.682 6.803 7.079 0.121c3.893 0.067 7.076 0.003 7.076-0.141 0-2.225-7.934-15.064-10.136-16.402l-1.207-0.734 2.436-1.274c9.031-4.728 7.321-18.273-2.576-20.396-1.249-0.267-7.574-0.467-14.884-0.467h-12.71v19.755zM195.401 6.952c19.87 5.186 18.051 33.064-2.824 43.242-21.268 10.37-40.222-6.654-30.113-27.045 5.898-11.897 20.984-19.316 32.934-16.194zM24.14 12.417c4.472 2.261 1.505 6.435-4.829 6.795l-3.943 0.225v-7.585l3.842 0.006c2.199 0.003 4.306 0.242 4.93 0.557zM188.373 15.91c-3.496 0.928-7.051 4.461-7.054 7.009-0.006 4.163 3.322 5.664 8.558 3.862 3.203-1.102 4.019-1.102 4.612 0.003 1.004 1.879-2.287 3.794-4.207 2.447-0.965-0.675-4.523 1.454-4.559 2.728-0.056 1.918 4.798 2.644 7.771 1.162 9.442-4.705 6.761-14.805-3.032-11.427-3.915 1.35-4.756 1.409-4.756 0.323 0-1.704 2.663-2.936 3.825-1.775 0.475 0.475 4.075-1.912 4.075-2.703 0-1.181-3.189-2.177-5.237-1.631zM174.201 25.383c-2.095 1.516-2.194 1.122 1.648 6.576 2.365 3.355 3.274 5.012 3.184 5.797-0.157 1.342-1.662 1.699-2.72 0.644-0.672-0.672-0.847-0.619-2.438 0.745-4.019 3.443 2.090 6.398 6.629 3.209 4.987-3.504 4.995-5.678 0.037-12.918-3.845-5.617-4.022-5.729-6.342-4.050zM13.044 49.621c-7.183 1.133-11.388 5.333-11.444 11.43-0.056 6.221 3.977 9.765 13.967 12.265 6.123 1.533 8.139 2.703 8.139 4.719 0 5.678-10.164 5.11-11.239-0.627-0.377-2.002-0.329-1.991-6.812-1.64l-5.749 0.312 0.287 1.8c1.311 8.252 6.109 11.686 16.799 12.021 8.477 0.264 11.391-0.557 15.092-4.258l2.534-2.534 0.931 1.257c5.386 7.284 23.58 7.774 29.554 0.793 1.747-2.039 3.707-5.881 3.907-7.65 0.141-1.246 0.101-1.268-5.223-2.883l-5.363-1.628-0.72 2.166c-2.453 7.383-11.714 7.467-13.748 0.127-0.692-2.495-0.608-8.454 0.157-11.022 1.845-6.207 9.638-7.481 12.8-2.090 1.319 2.25 0.965 2.208 6.95 0.855 5.698-1.288 5.453-1.060 4.154-3.859-5.153-11.087-22.475-13.688-31.66-4.759l-2.562 2.492-1.063-1.814c-2.649-4.523-11.005-6.846-19.682-5.473zM134.342 49.632c-4.863 0.844-9.667 3.904-12.381 7.883-0.726 1.066-0.745 0.979-0.768-3.187l-0.023-4.281h-12.732v13.61h-12.732v-13.61h-12.732v39.513h12.732v-15.806h12.732v15.806h12.732v-8.933l1.375 2.073c5.721 8.634 23.414 10.15 31.466 2.694 9.318-8.626 7.49-28.249-3.136-33.671-4.101-2.093-11.298-3.004-16.535-2.095zM20.183 57.727c0.734 0.38 1.595 1.409 2.062 2.467l0.802 1.817 8.578-0.413-0.281 2.239c-0.371 2.962-0.537 3.074-2.998 1.986-1.159-0.512-4.402-1.505-7.211-2.211-6.646-1.665-7.473-2.022-7.813-3.375-0.63-2.503 3.766-4.112 6.865-2.509zM141.871 59.279c6.502 1.806 7.819 16.729 1.789 20.278-4.503 2.649-10.201 0.394-11.537-4.57-2.655-9.863 2.264-17.786 9.748-15.708zM194.951 59.268c7.554 2.098 7.4 19.074-0.191 21.119-6.103 1.642-10.164-2.599-10.133-10.581 0.034-8.294 3.963-12.305 10.325-10.536z"></path>
  </symbol>
  <symbol version="1.1" xmlns="http://www.w3.org/2000/svg" xmlns:xlink="http://www.w3.org/1999/xlink" viewBox="0 0 286 257" id="unmute">
    <title></title>
    <desc></desc>
    <defs></defs>
    <g fill="none" fill-rule="evenodd" id="Page-1" stroke="none" stroke-width="1">
      <g fill-rule="nonzero" id="unmute">
        <path d="M205.917,10.039 C202.852,8.774 199.346,10.232 198.082,13.295 C196.817,16.358 198.275,19.866 201.338,21.13 C245.026,39.166 273.255,81.361 273.255,128.627 C273.255,192.725 221.108,244.872 157.009,244.872 C153.695,244.872 151.009,247.559 151.009,250.872 C151.009,254.185 153.695,256.872 157.009,256.872 C227.724,256.872 285.255,199.342 285.255,128.627 C285.255,76.485 254.113,29.936 205.917,10.039 Z" fill="#FB4A5E" id="Shape"></path>
        <path d="M157.009,211.93 C202.943,211.93 240.313,174.56 240.313,128.627 C240.313,82.694 202.943,45.324 157.009,45.324 C153.696,45.324 151.009,48.011 151.009,51.324 C151.009,54.638 153.696,57.324 157.009,57.324 C196.326,57.324 228.313,89.31 228.313,128.627 C228.313,167.944 196.326,199.93 157.009,199.93 C153.696,199.93 151.009,202.616 151.009,205.93 C151.009,209.244 153.696,211.93 157.009,211.93 Z" fill="#FB4A5E" id="Shape"></path>
        <path d="M176.538,149.604 C174.114,151.862 173.979,155.659 176.238,158.083 C177.42,159.352 179.022,159.994 180.63,159.994 C182.094,159.994 183.562,159.461 184.718,158.384 C192.949,150.717 197.67,139.871 197.67,128.627 C197.67,106.208 179.43,87.968 157.01,87.968 C153.697,87.968 151.01,90.655 151.01,93.968 C151.01,97.281 153.697,99.968 157.01,99.968 C172.813,99.968 185.67,112.824 185.67,128.627 C185.669,136.669 182.426,144.118 176.538,149.604 Z" fill="#FB4A5E" id="Shape"></path>
        <path d="M130.79,0.84 C128.549,-0.088 125.969,0.423 124.252,2.136 L60.844,65.448 L6,65.448 C2.687,65.448 0,68.135 0,71.448 L0,185.806 C0,189.119 2.687,191.806 6,191.806 L63.326,191.806 C66.639,191.806 69.326,189.119 69.326,185.806 C69.326,182.493 66.639,179.806 63.326,179.806 L12,179.806 L12,77.448 L63.326,77.448 C64.916,77.448 66.44,76.817 67.565,75.694 L122.491,20.852 L122.491,236.403 L92.864,206.82 C90.518,204.479 86.719,204.481 84.379,206.827 C82.038,209.172 82.041,212.971 84.386,215.312 L124.253,255.118 C125.4,256.264 126.934,256.872 128.494,256.872 C129.267,256.872 130.048,256.723 130.791,256.414 C133.032,255.485 134.493,253.297 134.493,250.872 L134.493,6.382 C134.491,3.956 133.03,1.769 130.79,0.84 Z" fill="#000000" id="Shape"></path>
      </g>
    </g>
  </symbol>
  <symbol version="1.1" xmlns="http://www.w3.org/2000/svg" xmlns:xlink="http://www.w3.org/1999/xlink" viewBox="0 0 295 295" id="mute">
    <title></title>
    <desc></desc>
    <defs></defs>
    <g fill="none" fill-rule="evenodd" id="Page-1" stroke="none" stroke-width="1">
      <g fill-rule="nonzero" id="mute">
        <path d="M251.487,69.611 C248.831,71.592 248.283,75.351 250.263,78.007 C265.304,98.179 273.254,122.182 273.254,147.421 C273.254,211.519 221.107,263.667 157.009,263.667 C153.696,263.667 151.009,266.354 151.009,269.667 C151.009,272.981 153.696,275.667 157.009,275.667 C227.724,275.667 285.254,218.136 285.254,147.421 C285.254,119.577 276.481,93.094 259.884,70.834 C257.903,68.177 254.144,67.629 251.487,69.611 Z" fill="#FB4A5E" id="Shape"></path>
        <path d="M157.009,31.176 C179.122,31.176 200.629,37.407 219.206,49.196 C220.203,49.829 221.315,50.131 222.415,50.131 C224.401,50.131 226.344,49.146 227.487,47.345 C229.262,44.547 228.433,40.84 225.635,39.064 C205.132,26.053 181.402,19.176 157.008,19.176 C153.695,19.176 151.008,21.863 151.008,25.176 C151.008,28.489 153.696,31.176 157.009,31.176 Z" fill="#FB4A5E" id="Shape"></path>
        <path d="M293.085,1.757 C290.743,-0.586 286.942,-0.586 284.601,1.757 L206.147,80.21 C192.361,70.104 175.374,64.118 157.009,64.118 C153.696,64.118 151.009,66.805 151.009,70.118 C151.009,73.432 153.696,76.118 157.009,76.118 C172.06,76.118 186.028,80.818 197.547,88.81 L175.254,111.103 C169.763,108.333 163.567,106.763 157.009,106.763 C153.696,106.763 151.009,109.45 151.009,112.763 C151.009,116.076 153.696,118.763 157.009,118.763 C160.189,118.763 163.246,119.291 166.106,120.252 L76.791,209.567 L67.565,200.355 C66.44,199.232 64.916,198.601 63.326,198.601 L12,198.601 L12,96.242 L63.326,96.242 C64.916,96.242 66.44,95.611 67.565,94.488 L122.491,39.646 L122.491,136.422 C122.491,139.735 125.178,142.422 128.491,142.422 C131.804,142.422 134.491,139.735 134.491,136.422 L134.491,25.176 C134.491,22.75 133.03,20.563 130.789,19.634 C128.547,18.706 125.968,19.217 124.251,20.93 L60.844,84.242 L6,84.242 C2.687,84.242 0,86.929 0,90.242 L0,204.6 C0,207.913 2.687,210.6 6,210.6 L60.844,210.6 L68.306,218.051 L1.758,284.6 C-0.585,286.943 -0.585,290.742 1.758,293.085 C2.929,294.256 4.465,294.842 6.001,294.842 C7.537,294.842 9.072,294.256 10.244,293.085 L76.799,226.53 L124.253,273.912 C125.4,275.058 126.934,275.666 128.494,275.666 C129.267,275.666 130.048,275.517 130.791,275.208 C133.032,274.279 134.493,272.091 134.493,269.666 L134.493,195.42 C134.493,192.107 131.806,189.42 128.493,189.42 C125.18,189.42 122.493,192.107 122.493,195.42 L122.493,255.196 L85.285,218.044 L176.702,126.626 C182.219,131.853 185.67,139.239 185.67,147.42 C185.67,163.223 172.814,176.08 157.011,176.08 C153.698,176.08 151.011,178.767 151.011,182.08 C151.011,185.393 153.698,188.08 157.011,188.08 C179.431,188.08 197.67,169.84 197.67,147.42 C197.67,135.93 192.872,125.546 185.183,118.145 L206.842,96.486 C220.079,109.439 228.315,127.482 228.315,147.42 C228.315,186.737 196.329,218.723 157.011,218.723 C153.698,218.723 151.011,221.409 151.011,224.723 C151.011,228.036 153.698,230.723 157.011,230.723 C202.945,230.723 240.315,193.353 240.315,147.42 C240.315,124.173 230.733,103.13 215.323,88.005 L293.086,10.242 C295.428,7.899 295.428,4.1 293.085,1.757 Z" fill="#000000" id="Shape"></path>
      </g>
    </g>
  </symbol>
</svg>